:SAMPLES-PER-SECOND 30
:FULLY-SPECIFIED
:DEGREES
654
root  -63.0068 32.8954 -17.5253 -4.36786 77.5587 -8.21564
RightUpLeg  -15.4541 -7.88713 -10.3655
RightLeg  23.8558 6.07392 2.22329
RightFoot  4.31904 -0.00700564 0.535674
RightToes  -48.8524 -0.295002 -0.357663
Spine  4.60554 -1.23885 -0.61646
Spine1  8.22023 -2.39546 -1.6616
HEad  8.44079 -5.91347 12.7124
LeftShoulder1  0 -2.42657e-020 -4.95415e-022
LeftArm  -3.87954 -4.37862 -68.7005
LeftForeArm  69.6436 -73.0461 -35.5696
LeftHand  -0.450072 -4.97334 9.9795
RightShoulder  0 2.42657e-020 1.07489e-018
RightArm  -16.1365 -6.03226 72.1541
RightForeArm  54.0017 62.1234 19.5404
RightHand  -3.52829 18.9416 -20.5582
LeftUpLeg  -5.59902 -11.1067 14.5042
LeftLeg  22.31 -15.7126 -5.21844
LeftFoot  -6.62678 0.108187 1.86852
LeftToes  -33.5478 3.33339e-006 -4.73431e-007
655
root  -63.0964 32.7998 -17.8654 -4.52222 78.4466 -8.98175
RightUpLeg  -15.391 -7.43924 -10.7758
RightLeg  22.7465 4.81925 1.66045
RightFoot  4.23116 9.19196e-005 0.419479
RightToes  -48.7137 -0.294394 -0.358058
Spine  4.44371 -1.29681 -0.562881
Spine1  8.09225 -2.52593 -1.53625
HEad  8.48837 -6.84907 13.6924
LeftShoulder1  0 -2.42657e-020 -4.95415e-022
LeftArm  -2.35212 0.967337 -70.3267
LeftForeArm  63.1662 -70.5044 -30.0383
LeftHand  -0.429992 -4.87583 9.7174
RightShoulder  0 2.42657e-020 1.07489e-018
RightArm  -18.3898 -10.5802 73.6236
RightForeArm  49.1587 55.9252 15.1427
RightHand  -3.22795 19.3892 -18.3673
LeftUpLeg  -6.16787 -9.5098 14.5309
LeftLeg  21.1958 -16.9792 -5.26756
LeftFoot  -7.67836 0.157386 2.34497
LeftToes  -31.7028 3.33339e-006 -4.73431e-007
656
root  -63.2283 32.6976 -18.2694 -1.5072 78.8128 -6.26611
RightUpLeg  -16.3802 -6.47601 -11.9764
RightLeg  23.5232 3.75781 1.35148
RightFoot  4.15091 0.00582317 0.327007
RightToes  -49.0167 -0.29349 -0.358522
Spine  4.46406 -1.36276 -0.76719
Spine1  8.27021 -2.70537 -1.80515
HEad  8.24599 -7.6015 14.8847
LeftShoulder1  0 -2.42657e-020 -4.95415e-022
LeftArm  -1.72023 5.36418 -71.6609
LeftForeArm  57.2036 -67.3074 -25.0565
LeftHand  -0.319087 -4.50516 7.74045
RightShoulder  0 2.42657e-020 1.07489e-018
RightArm  -22.5657 -13.7301 76.2603
RightForeArm  45.8257 48.8899 11.6653
RightHand  -3.03986 19.2512 -17.4197
LeftUpLeg  -6.62497 -10.4977 13.3476
LeftLeg  20.7059 -15.9508 -4.81216
LeftFoot  -8.49149 0.180127 2.42597
LeftToes  -31.183 3.33339e-006 -4.73431e-007
657
root  -63.3463 32.6552 -18.5478 -1.76556 78.794 -6.35651
RightUpLeg  -17.1159 -5.47556 -12.3938
RightLeg  24.6331 3.00542 1.14595
RightFoot  4.62159 0.00811252 0.291679
RightToes  -49.2143 -0.292909 -0.359071
Spine  4.72986 -1.52609 -0.848943
Spine1  8.91899 -3.04805 -1.91251
HEad  7.96622 -7.68035 16.3579
LeftShoulder1  0 -2.42657e-020 -4.95415e-022
LeftArm  -1.60093 8.9504 -73.1963
LeftForeArm  53.2786 -63.4977 -20.7825
LeftHand  -0.303899 -4.39248 7.55364
RightShoulder  0 2.42657e-020 1.07489e-018
RightArm  -27.7931 -14.9132 79.0578
RightForeArm  44.0443 40.596 8.68262
RightHand  -2.63153 18.9698 -15.2906
LeftUpLeg  -6.83088 -11.8472 12.986
LeftLeg  20.8763 -15.0805 -4.60537
LeftFoot  -8.96701 0.189439 2.41558
LeftToes  -31.7096 3.33339e-006 -4.73431e-007
658
root  -63.5269 32.6296 -18.7407 -0.368225 77.0217 -5.05591
RightUpLeg  -19.1601 -4.0194 -12.6933
RightLeg  26.2872 3.32733 1.37902
RightFoot  5.36041 0.00311394 0.374394
RightToes  -48.909 -0.293271 -0.359724
Spine  5.00743 -1.38311 -0.976067
Spine1  9.53542 -2.70268 -2.26121
HEad  7.77259 -6.70739 17.2526
LeftShoulder1  0 -2.42657e-020 -4.95415e-022
LeftArm  -1.84085 11.9215 -74.4413
LeftForeArm  49.8483 -60.3558 -18.1013
LeftHand  -0.264641 -4.21329 6.82623
RightShoulder  0 2.42657e-020 1.07489e-018
RightArm  -32.9801 -14.918 81.4672
RightForeArm  42.9659 32.5496 6.4458
RightHand  -2.31433 19.096 -13.3297
LeftUpLeg  -6.94332 -9.70048 12.6289
LeftLeg  21.4778 -15.3097 -4.84684
LeftFoot  -9.25385 0.20416 2.52222
LeftToes  -31.6953 3.33339e-006 -4.73431e-007
659
root  -63.7118 32.6188 -18.8088 -0.0917358 74.6945 -5.29242
RightUpLeg  -21.7353 -4.9583 -12.2347
RightLeg  27.8769 6.03839 2.7
RightFoot  6.30828 -0.0215139 0.767873
RightToes  -49.1381 -0.295281 -0.360715
Spine  5.06521 -1.27901 -0.95881
Spine1  9.67287 -2.47668 -2.37087
HEad  8.59301 -5.29249 17.2996
LeftShoulder1  0 -2.42657e-020 -4.95415e-022
LeftArm  -2.45313 14.7421 -75.638
LeftForeArm  48.815 -57.7632 -16.2722
LeftHand  -0.225958 -4.85233 4.9663
RightShoulder  0 2.42657e-020 1.07489e-018
RightArm  -37.8074 -15.4733 83.307
RightForeArm  44.4629 27.8682 5.32872
RightHand  -2.1242 20.192 -11.5221
LeftUpLeg  -6.98301 -7.04202 12.8726
LeftLeg  21.5731 -15.6116 -4.96767
LeftFoot  -9.40356 0.212321 2.58108
LeftToes  -31.7375 3.33339e-006 -4.73431e-007
660
root  -63.8225 32.6363 -18.7963 0.168457 72.7276 -5.54816
RightUpLeg  -23.7927 -8.89781 -11.4014
RightLeg  29.1721 10.4272 4.92636
RightFoot  6.76044 -0.0602531 1.3975
RightToes  -51.9196 -0.319995 -0.372102
Spine  4.9316 -1.47835 -0.871612
Spine1  9.4711 -2.92825 -2.22531
HEad  10.3777 -3.5835 16.677
LeftShoulder1  0 -2.42657e-020 -4.95415e-022
LeftArm  -2.76537 17.3214 -77.093
LeftForeArm  48.71 -55.3885 -14.8249
LeftHand  -0.225184 -5.18149 4.60977
RightShoulder  0 2.42657e-020 1.07489e-018
RightArm  -42.007 -15.9909 84.2421
RightForeArm  48.5261 23.6672 4.40418
RightHand  -2.07454 21.4005 -10.5798
LeftUpLeg  -6.28319 -5.04634 13.1874
LeftLeg  20.2381 -15.8122 -4.63345
LeftFoot  -9.1337 0.199185 2.49329
LeftToes  -32.3541 3.33339e-006 -4.73431e-007
